HIERARCHY
ROOT Hips
{
	OFFSET 0.00 0.00 0.00
	CHANNELS 6 Xposition Yposition Zposition Xrotation Yrotation Zrotation
	JOINT LeftUpLeg
	{
		OFFSET 3.25772 0.00000 0.00000
		CHANNELS 3 Xrotation Yrotation Zrotation
		JOINT LeftLeg
		{
			OFFSET 0.00000 -15.35355 0.00000
			CHANNELS 3 Xrotation Yrotation Zrotation
			JOINT LeftFoot
			{
				OFFSET 0.00000 -16.48949 0.00000
				CHANNELS 3 Xrotation Yrotation Zrotation
				JOINT LeftToeBase
				{
					OFFSET 0.00000 -1.72224 6.42750
					CHANNELS 3 Xrotation Yrotation Zrotation
					End Site
					{
						OFFSET 0.00000 0.00000 2.95275
					}
				}
			}
		}
	}
	JOINT RightUpLeg
	{
		OFFSET -3.25772 0.00000 0.00000
		CHANNELS 3 Xrotation Yrotation Zrotation
		JOINT RightLeg
		{
			OFFSET 0.00000 -15.35355 0.00000
			CHANNELS 3 Xrotation Yrotation Zrotation
			JOINT RightFoot
			{
				OFFSET 0.00000 -16.48949 0.00000
				CHANNELS 3 Xrotation Yrotation Zrotation
				JOINT RightToeBase
				{
					OFFSET 0.00000 -1.72224 6.42750
					CHANNELS 3 Xrotation Yrotation Zrotation
					End Site
					{
						OFFSET 0.00000 0.00000 2.95275
					}
				}
			}
		}
	}
	JOINT Spine
	{
		OFFSET 0.00000 0.03937 0.00000
		CHANNELS 3 Xrotation Yrotation Zrotation
		JOINT Spine1
		{
			OFFSET 0.00000 10.14986 0.00000
			CHANNELS 3 Xrotation Yrotation Zrotation
			JOINT Neck
			{
				OFFSET 0.00000 9.84250 0.00000
				CHANNELS 3 Xrotation Yrotation Zrotation
				JOINT Head
				{
					OFFSET 0.00000 4.54023 0.00000
					CHANNELS 3 Xrotation Yrotation Zrotation
					End Site
					{
						OFFSET 0.00000 4.52755 0.00000
					}
				}
			}
			JOINT LeftShoulder
			{
				OFFSET 0.00000 9.84250 0.00000
				CHANNELS 3 Xrotation Yrotation Zrotation
				JOINT LeftArm
				{
					OFFSET 7.21510 -0.00003 0.00000
					CHANNELS 3 Xrotation Yrotation Zrotation
					JOINT LeftForeArm
					{
						OFFSET 10.66411 -0.00004 0.00000
						CHANNELS 3 Xrotation Yrotation Zrotation
						JOINT LeftHand
						{
							OFFSET 8.93656 -0.00003 0.00000
							CHANNELS 3 Xrotation Yrotation Zrotation
							JOINT L_Wrist_End
							{
								OFFSET 3.93700 -0.00001 0.00000
								CHANNELS 3 Xrotation Yrotation Zrotation
							}
						}
					}
				}
			}
			JOINT RightShoulder
			{
				OFFSET 0.00000 9.84250 0.00000
				CHANNELS 3 Xrotation Yrotation Zrotation
				JOINT RightArm
				{
					OFFSET -7.21510 -0.00003 0.00000
					CHANNELS 3 Xrotation Yrotation Zrotation
					JOINT RightForeArm
					{
						OFFSET -10.66411 -0.00004 0.00000
						CHANNELS 3 Xrotation Yrotation Zrotation
						JOINT RightHand
						{
							OFFSET -8.93656 -0.00003 0.00000
							CHANNELS 3 Xrotation Yrotation Zrotation
							JOINT R_Wrist_End
							{
								OFFSET -5.41338 -0.00002 0.00000
								CHANNELS 3 Xrotation Yrotation Zrotation
							}
						}
					}
				}
			}
		}
	}
}
MOTION
Frames: 15
Frame Time: 0.008333
 -0.4705 33.9672 2.7047 1.4291 -1.3960 -1.0949 4.0442 19.8026 6.8581 2.2312 -0.0000 -0.0000 -0.8420 -1.5624 1.3197 -36.0044 0.0000 0.0000 4.9007 4.5428 -0.7935 2.7626 -0.0000 0.0000 -0.8975 -15.3391 0.0787 -30.5132 0.0000 -0.0000 -17.1540 -2.1979 -3.8073 26.9258 3.8798 5.2201 -25.3361 -21.8656 8.1689 -1.5756 0.4961 -21.7064 8.5644 8.5723 18.1447 -23.4070 11.9971 -26.3081 -0.0000 -6.1297 -0.0000 -1.0649 3.5141 17.9729 -0.0000 -0.0000 0.0000 7.5391 -4.9439 -17.6342 -12.0193 -3.5021 22.7942 -0.0001 14.0898 0.0000 -19.3973 -13.3312 -15.7354 -0.0000 0.0000 -0.0000
 -0.4710 33.9718 2.7048 1.4342 -1.3663 -1.0936 4.0455 19.7281 6.8514 2.2084 0.0000 -0.0000 -0.7633 -1.5209 1.2796 -36.0165 0.0000 0.0000 4.9058 4.5482 -0.7928 2.7452 -0.0000 0.0000 -0.8525 -15.3589 0.0995 -30.5018 0.0000 0.0000 -17.1385 -2.1949 -3.7846 26.9280 3.8823 5.2225 -25.9885 -22.4007 7.8555 -0.6408 0.8387 -21.6332 8.5413 8.5914 18.0439 -23.4818 11.8849 -26.2546 -0.0000 -6.1187 -0.0000 -1.1365 3.4995 17.8536 -0.0000 0.0000 -0.0000 7.5072 -5.0346 -17.5992 -12.1342 -3.5718 22.7727 -0.0001 14.2165 0.0000 -19.2220 -13.4265 -15.7380 -0.0000 0.0000 -0.0000
 -0.4704 33.9718 2.7012 1.4299 -1.3842 -1.0888 4.0215 19.8659 6.8540 2.2264 0.0000 -0.0000 -0.7911 -1.6334 1.2614 -35.9920 0.0000 -0.0000 4.9025 4.5399 -0.8025 2.7518 -0.0000 0.0000 -0.8552 -15.3210 0.0871 -30.5293 0.0000 -0.0000 -17.1298 -2.1966 -3.7600 26.9271 3.8755 5.2223 -26.0957 -22.5477 7.6911 -0.4453 0.9851 -21.4897 8.6119 8.6046 18.0088 -23.5252 11.8842 -26.2832 -0.0000 -6.1158 -0.0000 -1.1808 3.5004 17.8307 -0.0000 0.0000 -0.0000 7.5273 -5.0244 -17.6285 -12.0948 -3.5543 22.7838 -0.0001 14.1613 0.0000 -19.4500 -13.2914 -15.7726 -0.0000 0.0000 -0.0000
 -0.4767 33.9712 2.6999 1.4317 -1.4091 -1.0865 4.0261 19.8503 6.8598 2.2168 -0.0000 -0.0000 -0.7780 -1.6111 1.2935 -35.9814 0.0000 0.0000 4.8986 4.5381 -0.7965 2.7387 -0.0000 0.0000 -0.8539 -15.2995 0.0817 -30.5238 0.0000 0.0000 -17.1273 -2.2015 -3.7564 26.9185 3.8662 5.2176 -26.1758 -22.6495 7.6132 -0.3117 1.0554 -21.4252 8.5470 8.6077 18.0069 -23.4434 11.8608 -26.3008 -0.0000 -6.1005 -0.0000 -1.2327 3.5730 17.8112 -0.0000 0.0000 -0.0000 7.5351 -5.0194 -17.6394 -12.0494 -3.5213 22.8277 -0.0001 14.1710 0.0000 -19.4552 -13.1993 -15.8991 -0.0000 0.0000 -0.0000
 -0.4754 33.9711 2.6984 1.4275 -1.4174 -1.0813 4.0211 19.8500 6.8553 2.2388 0.0000 -0.0000 -0.7721 -1.6065 1.2946 -36.0528 0.0000 0.0000 4.8951 4.5681 -0.8047 2.7463 -0.0000 0.0000 -0.8722 -15.3223 0.0737 -30.5121 0.0000 -0.0000 -17.1309 -2.2083 -3.7408 26.9185 3.8581 5.2237 -26.1839 -22.6681 7.5661 -0.2229 1.1211 -21.4153 8.6395 8.6049 17.9732 -23.4316 11.8559 -26.3425 -0.0000 -6.1145 -0.0000 -1.1818 3.6412 17.9707 -0.0000 -0.0000 0.0000 7.5744 -5.0289 -17.6501 -12.2533 -3.5657 22.7946 -0.0001 14.1662 0.0000 -19.3671 -13.2964 -15.7368 -0.0000 -0.0000 0.0000
 -0.4763 33.9715 2.6953 1.4212 -1.4306 -1.0769 4.0031 19.8779 6.8541 2.2764 -0.0000 -0.0000 -0.7919 -1.6130 1.3019 -36.0031 0.0000 -0.0000 4.8892 4.5583 -0.8085 2.7647 -0.0000 0.0000 -0.8678 -15.2957 0.0746 -30.5258 0.0000 -0.0000 -17.1271 -2.2165 -3.7294 26.9362 3.8472 5.2243 -26.1892 -22.7077 7.5160 -0.2060 1.1577 -21.3592 8.6463 8.6002 17.9517 -23.3800 11.8618 -26.3730 -0.0000 -6.1210 -0.0000 -1.1671 3.7238 18.0558 -0.0000 -0.0000 0.0000 7.5794 -5.0338 -17.6531 -12.3444 -3.5695 22.7820 -0.0001 14.1976 0.0000 -19.3480 -13.3605 -15.7450 -0.0000 0.0000 -0.0000
 -0.4789 33.9713 2.6929 1.4215 -1.4532 -1.0715 3.9900 19.7840 6.8531 2.3208 0.0000 0.0000 -0.8060 -1.4986 1.2867 -35.9817 0.0000 0.0000 4.9066 4.6574 -0.8089 2.7162 -0.0000 0.0000 -0.8575 -15.3947 0.0885 -30.4869 0.0000 -0.0000 -17.1304 -2.2162 -3.7210 26.9387 3.8416 5.2182 -26.1922 -22.7483 7.4786 -0.1505 1.1921 -21.3059 8.6360 8.5874 17.9486 -23.2790 11.8428 -26.4086 -0.0000 -6.0972 -0.0000 -1.2477 3.7284 18.0462 -0.0000 -0.0000 0.0000 7.6144 -5.0239 -17.6611 -12.3052 -3.5287 22.7918 -0.0001 14.1777 0.0000 -19.2874 -13.3238 -15.7250 -0.0000 0.0000 -0.0000
 -0.4809 33.9709 2.6896 1.4200 -1.4737 -1.0653 3.9622 19.8690 6.8555 2.3527 0.0000 0.0000 -0.8295 -1.5474 1.2787 -35.9878 0.0000 -0.0000 4.9184 4.6544 -0.8168 2.6814 -0.0000 0.0000 -0.8330 -15.3547 0.0826 -30.4969 0.0000 -0.0000 -17.1345 -2.2180 -3.7111 26.9541 3.8359 5.2159 -26.2297 -22.7690 7.4515 -0.0730 1.2480 -21.2910 8.6433 8.6003 17.9463 -23.2889 11.8594 -26.4569 -0.0000 -6.1245 -0.0000 -1.2139 3.8088 18.0330 -0.0000 -0.0000 0.0000 7.6702 -5.0348 -17.6729 -12.3920 -3.5463 22.8005 -0.0001 14.2264 0.0000 -19.3619 -13.3386 -15.7474 -0.0000 0.0000 -0.0000
 -0.4827 33.9717 2.6881 1.4164 -1.4782 -1.0607 3.9566 19.8818 6.8584 2.3689 0.0000 -0.0000 -0.8189 -1.5724 1.2943 -35.9800 0.0000 -0.0000 4.9137 4.6667 -0.8205 2.6966 -0.0000 0.0000 -0.8427 -15.3489 0.0650 -30.5140 0.0000 -0.0000 -17.1420 -2.2266 -3.7038 26.9649 3.8233 5.2152 -26.2292 -22.8016 7.4294 -0.0482 1.2615 -21.2868 8.6587 8.5922 17.9368 -23.2409 11.8526 -26.4991 -0.0000 -6.1024 -0.0000 -1.2177 3.8410 18.1031 -0.0000 -0.0000 0.0000 7.6599 -5.0179 -17.6885 -12.3694 -3.5286 22.8045 -0.0001 14.2324 0.0000 -19.4896 -13.3400 -15.7928 -0.0000 0.0000 -0.0000
 -0.4840 33.9715 2.6856 1.4131 -1.4885 -1.0550 3.9355 19.8914 6.8709 2.4094 0.0000 0.0000 -0.8257 -1.6053 1.3367 -35.9543 0.0000 0.0000 4.9095 4.6013 -0.8236 2.7002 -0.0000 0.0000 -0.8582 -15.2878 0.0763 -30.4583 0.0000 -0.0000 -17.1482 -2.2317 -3.6940 26.9995 3.8105 5.2070 -26.1517 -22.7520 7.4207 -0.1133 1.2937 -21.1830 8.5992 8.5984 17.9406 -23.1652 11.8590 -26.5500 -0.0000 -6.1135 -0.0000 -1.1025 3.8374 18.0817 -0.0000 0.0000 -0.0000 7.6306 -5.0095 -17.7075 -12.2996 -3.5077 22.8190 -0.0001 14.2801 0.0000 -19.5623 -13.3743 -15.8106 -0.0000 -0.0000 0.0000
 -0.4843 33.9706 2.6831 1.4113 -1.4855 -1.0535 3.9501 19.8596 6.8593 2.3750 -0.0000 -0.0000 -0.8040 -1.5590 1.2725 -36.0147 0.0000 0.0000 4.8990 4.6148 -0.8278 2.7094 -0.0000 0.0000 -0.8757 -15.3017 0.0813 -30.4454 0.0000 -0.0000 -17.1598 -2.2423 -3.6874 27.0167 3.7974 5.2095 -26.1324 -22.7486 7.4230 -0.1146 1.3003 -21.1662 8.6508 8.5994 17.9241 -23.2480 11.8934 -26.5742 -0.0000 -6.1027 -0.0000 -1.0920 3.8613 18.0744 -0.0000 -0.0000 0.0000 7.7456 -5.0283 -17.6887 -12.5088 -3.5336 22.7893 -0.0001 14.2684 0.0000 -19.4545 -13.3294 -15.7408 -0.0000 -0.0000 0.0000
 -0.4865 33.9701 2.6820 1.4087 -1.4971 -1.0482 3.9320 19.9305 6.8649 2.3999 0.0000 0.0000 -0.8249 -1.6026 1.2878 -36.0167 0.0000 -0.0000 4.8965 4.6245 -0.8285 2.7199 -0.0000 0.0000 -0.8700 -15.3333 0.1057 -30.4821 0.0000 -0.0000 -17.1671 -2.2491 -3.6813 27.0291 3.7853 5.2054 -26.1083 -22.7253 7.4422 -0.1016 1.3079 -21.1695 8.6360 8.5953 17.9256 -23.2280 11.9068 -26.6139 -0.0000 -6.0616 -0.0000 -1.1080 3.8633 17.9904 -0.0000 -0.0000 0.0000 7.6940 -5.0167 -17.7137 -12.4594 -3.5126 22.8046 -0.0001 14.3044 0.0000 -19.5355 -13.3913 -15.7698 -0.0000 0.0000 -0.0000
 -0.4892 33.9707 2.6801 1.4056 -1.5085 -1.0422 3.9097 19.9533 6.8762 2.4400 0.0000 -0.0000 -0.8443 -1.6492 1.2917 -35.9751 0.0000 0.0000 4.8910 4.6715 -0.8319 2.7255 -0.0000 0.0000 -0.8745 -15.3276 0.0774 -30.4760 0.0000 -0.0000 -17.1949 -2.2567 -3.6723 27.0779 3.7626 5.1884 -26.1744 -22.8098 7.3663 0.1188 1.4184 -21.0576 8.6597 8.6155 17.9298 -23.3288 11.9783 -26.6493 -0.0000 -6.0872 -0.0000 -1.1585 3.9519 17.8977 -0.0000 -0.0000 0.0000 7.7349 -5.0014 -17.7501 -12.5468 -3.5240 22.8516 -0.0001 14.2974 0.0000 -19.5912 -13.3155 -15.7419 -0.0000 0.0000 -0.0000
 -0.4896 33.9715 2.6763 1.4067 -1.5058 -1.0397 3.8932 20.0080 6.8780 2.4447 -0.0000 0.0000 -0.8383 -1.7205 1.2966 -35.9635 0.0000 0.0000 4.8943 4.5368 -0.8329 2.6985 -0.0000 0.0000 -0.8451 -15.2050 0.1016 -30.4734 0.0000 -0.0000 -17.2061 -2.2616 -3.6617 27.1065 3.7529 5.1861 -26.1236 -22.8145 7.3517 -0.0260 1.4008 -21.0077 8.5880 8.5855 17.9329 -23.2188 11.9425 -26.6901 -0.0000 -6.0066 -0.0000 -1.1290 3.8697 17.8344 -0.0000 -0.0000 0.0000 7.6563 -4.9725 -17.7580 -12.3866 -3.4785 22.8374 -0.0001 14.2771 0.0000 -19.7162 -13.3011 -15.7585 -0.0000 -0.0000 0.0000
 -0.4911 33.9715 2.6740 1.4033 -1.5175 -1.0364 3.8972 19.9412 6.8718 2.4601 0.0000 -0.0000 -0.8307 -1.6271 1.2928 -36.0081 0.0000 0.0000 4.8885 4.5929 -0.8362 2.7065 -0.0000 0.0000 -0.8567 -15.2456 0.0764 -30.4722 0.0000 -0.0000 -17.2178 -2.2671 -3.6560 27.1187 3.7432 5.1840 -26.0658 -22.8039 7.3566 -0.0653 1.3915 -20.9699 8.6330 8.5814 17.9145 -23.2419 11.9501 -26.7198 -0.0000 -5.9816 -0.0000 -1.2747 3.9010 17.8561 -0.0000 -0.0000 0.0000 7.7165 -4.9739 -17.7541 -12.4785 -3.4767 22.8220 -0.0001 14.2948 0.0000 -19.6804 -13.3945 -15.7792 -0.0000 0.0000 -0.0000
